<?xml version="1.0" encoding="UTF-8"?>
<svg width="29px" height="26px" viewBox="0 0 29 26" version="1.1" xmlns="http://www.w3.org/2000/svg" xmlns:xlink="http://www.w3.org/1999/xlink">
    <!-- Generator: Sketch 48.1 (47250) - http://www.bohemiancoding.com/sketch -->
    <title>icon-recent@3x</title>
    <desc>Created with Sketch.</desc>
    <defs>
        <filter x="-1.9%" y="-18.4%" width="103.7%" height="128.6%" filterUnits="objectBoundingBox" id="filter-1">
            <feOffset dx="0" dy="-2" in="SourceAlpha" result="shadowOffsetOuter1"></feOffset>
            <feGaussianBlur stdDeviation="2" in="shadowOffsetOuter1" result="shadowBlurOuter1"></feGaussianBlur>
            <feColorMatrix values="0 0 0 0 0.848772321   0 0 0 0 0.841555211   0 0 0 0 0.841555211  0 0 0 0.1 0" type="matrix" in="shadowBlurOuter1" result="shadowMatrixOuter1"></feColorMatrix>
            <feMerge>
                <feMergeNode in="shadowMatrixOuter1"></feMergeNode>
                <feMergeNode in="SourceGraphic"></feMergeNode>
            </feMerge>
        </filter>
    </defs>
    <g id="Final:-Light-Map,-Dark-UI-Copy-6" stroke="none" stroke-width="1" fill="none" fill-rule="evenodd" transform="translate(-297.000000, -623.000000)" fill-opacity="0.7">
        <g id="Bottom-Nav" filter="url(#filter-1)" transform="translate(0.000000, 618.000000)" fill="#7D7E7E" fill-rule="nonzero">
            <g id="np_suitcase_1256429_000000" transform="translate(301.000000, 11.000000)">
                <path d="M17.770782,3.15647416 L14.5098734,3.15647416 L14.5098734,2.40395681 C14.5098734,1.15758741 13.4996691,0.146404762 12.2523214,0.146404762 L8.81105956,0.146404762 C7.56371188,0.146404762 6.55350751,1.15758741 6.55350751,2.40395681 L6.55350751,3.15647416 L3.29259899,3.15647416 C1.49164939,3.15647416 0.0316904762,4.61643307 0.0316904762,6.41738268 L0.0316904762,14.6549393 C0.0316904762,16.4558889 1.49164939,17.9158478 3.29259899,17.9158478 L17.770782,17.9158478 C19.5717316,17.9158478 21.0316905,16.4558889 21.0316905,14.6549393 L21.0316905,6.41738268 C21.0316905,5.55316667 20.687765,4.72324037 20.0763446,4.11182002 C19.4649243,3.50039967 18.6359762,3.15647416 17.770782,3.15647416 Z M8.05854221,2.40395681 C8.05854221,1.98851707 8.39561981,1.65143946 8.81105956,1.65143946 L12.2621041,1.65143946 C12.6775439,1.65143946 13.0146215,1.98851707 13.0146215,2.40395681 L13.0146215,3.15647416 L8.05854221,3.15647416 L8.05854221,2.40395681 Z M4.54679457,16.4010304 L3.29259899,16.4010304 C2.32255396,16.4010304 1.53672518,15.6152016 1.53672518,14.6451565 L1.53672518,6.41738268 C1.53672518,5.44831592 2.32255396,4.66150886 3.29259899,4.66150886 L4.54679457,4.66150886 L4.54679457,16.4010304 Z M15.0223378,16.4010304 L6.05182927,16.4010304 L6.05182927,4.66150886 L15.0213344,4.66150886 L15.0223378,16.4010304 Z M19.5374419,14.6451565 L19.5364621,14.6451565 C19.5364621,15.1105885 19.3512726,15.5573832 19.0220412,15.8866095 C18.6928099,16.2158358 18.2469985,16.4010304 17.7805883,16.4010304 L16.5263927,16.4010304 L16.5263927,4.66150886 L17.7805883,4.66150886 C18.7506333,4.66150886 19.5364621,5.44831592 19.5364621,6.41738268 L19.5374419,14.6451565 Z" id="icon-recent"></path>
            </g>
        </g>
    </g>
</svg>