<?xml version="1.0" encoding="UTF-8"?>
<svg width="7px" height="10px" viewBox="0 0 7 10" version="1.1" xmlns="http://www.w3.org/2000/svg" xmlns:xlink="http://www.w3.org/1999/xlink">
    <!-- Generator: Sketch 48.1 (47250) - http://www.bohemiancoding.com/sketch -->
    <title>Shape</title>
    <desc>Created with Sketch.</desc>
    <defs></defs>
    <g id="Final:-Light-Map,-Dark-UI-Copy-2" stroke="none" stroke-width="1" fill="none" fill-rule="evenodd" transform="translate(-202.000000, -76.000000)">
        <g id="Top-Nav-mini" transform="translate(0.000000, 65.000000)" fill="#6450C8" fill-rule="nonzero">
            <g id="Directions" transform="translate(16.000000, 8.000000)">
                <g id="Group-19" transform="translate(130.000000, 0.000000)">
                    <g id="Group-18" transform="translate(41.000000, 3.000000)">
                        <g id="icon-small-top" transform="translate(15.000000, 0.000000)">
                            <path d="M6.62532264,4.84271103 L5.10498966,4.35473156 L4.58433821,3.13280777 C4.61767799,2.92326974 4.57933724,2.71486867 4.4859874,2.53665566 L4.5960067,2.32141819 C4.5998963,2.32141819 4.60378589,2.32198755 4.6082311,2.32198755 C5.23388909,2.32198755 5.74119781,1.80212915 5.74119781,1.16099378 C5.74119781,0.519858402 5.23388909,0 4.6082311,0 C3.98257311,0 3.4752644,0.519858402 3.4752644,1.16099378 C3.4752644,1.43714669 3.56972476,1.6910995 3.72752474,1.89039021 L3.65028904,2.04128675 C3.46804253,2.04698065 2.97073376,2.23487803 2.88848671,2.28042978 L1.35378681,3.13737111 C1.25265792,3.17950611 1.1654237,3.25238891 1.10485504,3.3486146 C1.0659591,3.40840182 1.03928784,3.47445112 1.02595221,3.5444944 L0.528088676,5.27546079 C0.444740631,5.565855 0.606435327,5.87047593 0.889822094,5.95589457 C1.17320602,6.04130446 1.47047322,5.8756098 1.5538298,5.58521267 L2.00335789,4.02333437 L2.46510498,3.76540216 L2.02113873,5.17636934 C1.95779485,5.377934 1.96501814,5.58462961 2.02725079,5.77024751 L0.096962755,8.97592438 C-0.0925098806,9.29251266 0.00416952745,9.70645779 0.313106651,9.90063213 C0.622043775,10.0948065 1.02600456,9.99572086 1.21549142,9.67914132 L3.08973424,6.56456794 L3.91598856,7.54791719 L4.06490666,9.38077373 C4.09491218,9.75088714 4.41218781,10.0259031 4.7728117,9.99457805 C5.13399036,9.96383026 5.40236725,9.63870594 5.37235319,9.26916102 L5.2112161,7.28704052 C5.20176992,7.17316115 5.16565305,7.06839213 5.10897627,6.97899409 C5.08286119,6.90212607 5.0428543,6.82868062 4.98728846,6.76318814 L3.87153362,5.43535107 L4.09490365,4.7253123 L4.21270242,5.0020337 C4.24548603,5.07890172 4.29382715,5.14381406 4.35217107,5.19562498 C4.41162593,5.25712057 4.48608356,5.30494917 4.57221253,5.33285016 L6.30477762,5.88914996 C6.58649725,5.97968351 6.88653827,5.81911397 6.97488771,5.52986693 C7.06434809,5.2406097 6.90709861,4.93313176 6.62538751,4.84261133 L6.62532264,4.84271103 Z" id="Shape"></path>
                        </g>
                    </g>
                </g>
            </g>
        </g>
    </g>
</svg>