<?xml version="1.0" encoding="UTF-8"?>
<svg width="26px" height="25px" viewBox="0 0 26 25" version="1.1" xmlns="http://www.w3.org/2000/svg" xmlns:xlink="http://www.w3.org/1999/xlink">
    <!-- Generator: Sketch 48.1 (47250) - http://www.bohemiancoding.com/sketch -->
    <title>np_map_1268901_000000@3x</title>
    <desc>Created with Sketch.</desc>
    <defs>
        <filter x="-1.9%" y="-18.4%" width="103.7%" height="128.6%" filterUnits="objectBoundingBox" id="filter-1">
            <feOffset dx="0" dy="-2" in="SourceAlpha" result="shadowOffsetOuter1"></feOffset>
            <feGaussianBlur stdDeviation="2" in="shadowOffsetOuter1" result="shadowBlurOuter1"></feGaussianBlur>
            <feColorMatrix values="0 0 0 0 0.848772321   0 0 0 0 0.841555211   0 0 0 0 0.841555211  0 0 0 0.1 0" type="matrix" in="shadowBlurOuter1" result="shadowMatrixOuter1"></feColorMatrix>
            <feMerge>
                <feMergeNode in="shadowMatrixOuter1"></feMergeNode>
                <feMergeNode in="SourceGraphic"></feMergeNode>
            </feMerge>
        </filter>
    </defs>
    <g id="Final:-Light-Map,-Dark-UI-Copy-6" stroke="none" stroke-width="1" fill="none" fill-rule="evenodd" transform="translate(-49.000000, -625.000000)">
        <g id="Bottom-Nav" filter="url(#filter-1)" transform="translate(0.000000, 618.000000)" fill="#6450C8" fill-rule="nonzero">
            <g id="np_map_1268901_000000" transform="translate(62.000000, 22.000000) scale(-1, 1) translate(-62.000000, -22.000000) translate(53.000000, 13.000000)">
                <path d="M16.1990533,2.13697295 L11.490673,0.151068983 C11.4500173,0.134563187 11.4083928,0.122400284 11.3667682,0.112844051 L11.3386964,0.112844051 C11.2883588,0.103288041 11.2370548,0.0980755907 11.1857508,0.0972069231 L11.1412219,0.0972069231 C11.1015328,0.0989444806 11.0628125,0.103288041 11.0240923,0.111106494 L10.9766591,0.124137397 L10.977627,0.124137397 C10.9427801,0.132824518 10.9088996,0.144118086 10.8759855,0.157149434 L10.8566254,0.157149434 L6.20920617,2.23688106 L2.67792092,0.748759648 C2.14066994,0.520295182 1.50954873,0.555035213 1.00713976,0.839976415 C0.503789122,1.12579607 0.199826,1.62268905 0.199826,2.15696631 L0.199826,13.8257116 C0.199826,14.4277298 0.585095417,14.9759067 1.19106397,15.233905 L5.89944431,17.2198089 C5.93622915,17.2337085 5.97301399,17.2441343 6.01076529,17.252821 L6.04851659,17.252821 C6.15306245,17.2745392 6.26147911,17.2745392 6.36504365,17.252821 L6.40763714,17.2415276 C6.44538844,17.2328405 6.48314222,17.2206783 6.51895812,17.2059091 L6.53831824,17.2059091 L11.1904458,15.1357404 L14.7217311,16.6238618 C15.2589821,16.8523263 15.8901033,16.8175863 16.3925122,16.5326451 C16.8958629,16.2468254 17.199826,15.7499324 17.199826,15.2156552 L17.199826,3.54690983 C17.1988581,2.94226738 16.8087578,2.39237812 16.1988987,2.13698184 L16.1990533,2.13697295 Z M5.47831909,15.5675167 L1.83279366,14.023797 C1.74664021,13.9873112 1.69243188,13.9091266 1.69146543,13.8239901 L1.69146543,2.15702391 C1.69146543,2.08144583 1.73502538,2.01107842 1.80569073,1.97024926 C1.8453799,1.94766302 1.89087525,1.93463078 1.93733952,1.93463078 C1.97412437,1.93463078 2.01090673,1.94244923 2.04382079,1.9563488 L5.47821253,3.40450617 L5.47831909,15.5675167 Z M10.4345089,13.9794963 L6.96517604,15.5362482 L6.96517604,3.39313832 L10.4345089,1.83638639 L10.4345089,13.9794963 Z M15.7054168,15.2156907 C15.706385,15.2921384 15.6628233,15.3642427 15.5911915,15.4050718 C15.5185908,15.445901 15.4285665,15.4511139 15.3511261,15.4181025 L11.9214427,13.9682105 L11.9214427,1.80530762 L15.5669681,3.34902731 C15.654088,3.38638269 15.7082964,3.46543677 15.7082964,3.55144065 L15.7054168,15.2156907 Z" id="Shape"></path>
            </g>
        </g>
    </g>
</svg>